<?xml version="1.0" encoding="utf-8"?>
<!-- Generator: Adobe Illustrator 16.0.0, SVG Export Plug-In . SVG Version: 6.00 Build 0)  -->
<!DOCTYPE svg PUBLIC "-//W3C//DTD SVG 1.1//EN" "http://www.w3.org/Graphics/SVG/1.1/DTD/svg11.dtd">
<svg version="1.1" id="Layer_1" xmlns="http://www.w3.org/2000/svg" xmlns:xlink="http://www.w3.org/1999/xlink" x="0px" y="0px"
	 width="2968px" height="1024px" viewBox="0 0 2968 1024" enable-background="new 0 0 2968 1024" xml:space="preserve">
<g>
	<g>
		<path fill="#0075B2" d="M233.467,605.956c-9.676,11.44-18.472,23.708-26.276,36.604c51.78,43.446,118.538,69.625,191.421,69.625
			h298.021v-114.2H398.611c-42.612,0-81.836-14.508-113.012-38.848C266.424,572.254,249.057,587.525,233.467,605.956z"/>
		<path fill="#0075B2" d="M398.611,230.354h298.021v-114.2H398.611c-164.59,0-298.01,133.43-298.01,298.01
			c0,61.08,18.387,117.858,49.91,165.129c7.676-20.889,17.509-40.979,29.351-59.734c12.796-20.264,26.792-39.605,41.321-57.262
			c-4.152-15.343-6.381-31.477-6.381-48.133C214.803,312.654,297.102,230.354,398.611,230.354z"/>
		<path fill="none" d="M150.512,579.293c15.807,23.703,34.919,45.008,56.679,63.267c7.805-12.896,16.601-25.163,26.276-36.604
			c15.59-18.431,32.957-33.702,52.133-46.819c-30.903-24.129-53.885-57.924-64.416-96.84
			c-14.529,17.656-28.525,36.998-41.321,57.262C168.021,538.314,158.188,558.404,150.512,579.293z"/>
		<g>
			<path opacity="0.4" fill="#EA9423" d="M643.061,459.585c0.092-0.45,0.186-0.902,0.266-1.351c-0.033,0.223-0.08,0.448-0.127,0.676
				C643.16,459.141,643.113,459.363,643.061,459.585z"/>
			<path opacity="0.4" fill="#EA9423" d="M663.456,490.835c-0.847,1.298-1.88,2.417-3.041,3.337c1.208-0.23,2.411-0.473,3.616-0.742
				C663.855,492.566,663.664,491.708,663.456,490.835z"/>
			<path opacity="0.4" fill="#EA9423" d="M643.061,459.585c0.092-0.45,0.186-0.902,0.266-1.351c-0.033,0.223-0.08,0.448-0.127,0.676
				C643.16,459.141,643.113,459.363,643.061,459.585z"/>
			<path fill="#EA9423" d="M664.771,488.334c4.475-11.135-8.679-22.064-16.389-28.372c-6.115-5.002-3.921-6.618-4.693-13.726
				c-1.082-10.328-6.691-17.742-12.912-25.955c-37.486-49.519-92.252-70.103-152.318-70.604
				c-72.816-0.966-145.203,25.985-200.083,74.338c-32.55,28.678-62.69,66.906-85.83,103.551
				c-24.001,38.017-39.243,81.121-44.499,125.713c-33.863-11.433-63.414,10.199-72.655,43.697
				c28.812-23.156,41.415,24.648,65.782,15.955c-3.144,23.77,44.026,28.32,43.449,54.602c15.039-24.055,14.537-55.493-1.66-78.986
				c-3.592-5.217-11.299-8.229-8.537-14.723c3.457-8.225,7.304-16.291,11.486-24.172c10.09-19.01,22.205-36.951,36.103-53.383
				c49.43-58.439,116.383-86.358,187.165-109.01c36.066-12.841,75.823-16.668,113.727-14.195
				c12.844,0.865,25.708,2.607,38.287,5.294c17.994,3.714,36.273,6.171,54.086,10.749
				C626.957,492.11,657.785,505.289,664.771,488.334C665.768,485.857,664.547,488.883,664.771,488.334z M643.326,458.234
				c-0.082,0.453-0.17,0.903-0.266,1.351C643.152,459.135,643.246,458.683,643.326,458.234
				C643.293,458.457,643.246,458.683,643.326,458.234z"/>
			<path fill="#EA9423" d="M425.066,345.329c-28.006,5.333-39.16,11.854-60.969,24.554c-2.012,0.879-9.557,5.166-11.539,6.095
				c2.641-2.681,5.838-9.372,6.737-13.21c5.103-21.742-0.968-31.98-11.892-46.464c-0.226-0.296-3.064-3.282-3.37-3.488
				c0,0,0,0-0.008-0.005c-3.503-2.741-4.163-6.173-4.655-10.54c8.693-4.585,16.992-3.287,26.468-2.183
				c8.975,1.049,17.804,4.02,26.187,8.694C407.462,317.388,419.384,329.9,425.066,345.329z"/>
			<path fill="#EA9423" d="M551.867,483.072c-14.111,17.221-28.092,31.063-53.955,37.619c-5.941,1.506-12.448,2.05-18.518,2.877
				c-3.037,0.415-3.535,0.541-6.596,0.703c-1.162,0.063-2.59-0.051-3.753-0.074c-1.278-0.023-3.555-1.164-3.866-2.174
				c-0.213-0.692,0.423-1.461,1.008-1.756c0.688-0.352,0.4-0.207,1.084-0.57c1.449-0.775,2.883-1.58,4.299-2.418
				c2.684-1.584,5.299-3.281,7.842-5.082c5.131-3.637,9.963-7.702,14.424-12.139c4.269-4.244,8.197-8.831,11.736-13.701
				c1.832-2.525,2.674-3.655,4.287-6.328c0.213-0.354,1.022-1.391,1.508-1.512c0.826-0.207,1.674,0.264,2.346,0.545
				c2.035,0.85,6.123,0.91,7.585,0.99c19.546,1.043,19.962,1.116,31.61,0.502C552.582,481.402,552.239,482.242,551.867,483.072
				C536.127,502.281,552.24,482.24,551.867,483.072C538.287,499.646,552.24,482.24,551.867,483.072z"/>
		</g>
	</g>
	<polygon fill="#0075B2" points="2107.031,116.439 2107.031,116.429 2107.021,116.409 1992.711,116.409 1992.711,116.439 
		1950.932,251.969 1909.012,115.919 1909.002,115.898 1794.691,115.898 1794.691,115.919 1611.002,711.938 1725.322,711.938 
		1851.852,301.389 1893.771,437.438 1893.791,437.49 2008.082,437.49 2008.092,437.438 2049.871,301.909 2176.393,712.449 
		2290.711,712.449 	"/>
	<polygon fill="#0075B2" points="1020.643,116.164 1020.632,116.145 906.322,116.145 906.322,116.164 722.632,712.185 
		836.952,712.185 963.482,301.635 1090.002,712.185 1204.322,712.185 	"/>
	<polygon fill="#0075B2" points="2714.291,116.414 2714.291,230.614 2530.541,230.614 2530.541,712.444 2416.342,712.444 
		2416.342,230.614 2232.592,230.614 2232.592,116.414 	"/>
	<rect x="2739.981" y="115.635" fill="#0075B2" width="114.204" height="596.553"/>
	<path fill="#0075B2" d="M1602.824,413.704c-4.58-5.819-9.5-11.36-14.739-16.59c25.399-29.851,40.729-68.54,40.729-110.81
		c0-92.601-73.59-168.021-165.471-170.98c-0.719-0.029-1.449-0.05-2.17-0.061c-1.14-0.029-2.289-0.039-3.439-0.039
		c-1.149,0-2.3,0.01-3.439,0.039c-4.891,0.091-9.721,0.391-14.5,0.891h-210.471v595.52h114.21v0.511h114.2
		c101.891,0,184.5-82.61,184.5-184.5C1642.234,484.664,1627.515,445.084,1602.824,413.704z M1343.534,230.354h100.171
		c0,0,11.35,0,14.029,0c31.391,0,56.851,25.45,56.851,56.85c0,28.421-20.87,51.979-48.12,56.19c0.79,0.029,1.569,0.07,2.35,0.119
		c-3.17,0.311-6.371,0.49-9.609,0.521c-0.49,0.011-0.98,0.021-1.471,0.021s-0.979-0.01-1.47-0.021c-3.241-0.03-6.44-0.21-9.61-0.521
		h-0.01c-1.01-0.09-2.02-0.199-3.03-0.33h-100.08V230.354z M1457.734,597.984h-113.7v-140.59h113.7c19.19,0,36.58,7.689,49.26,20.16
		c12.98,12.75,21.029,30.5,21.029,50.13C1528.023,566.504,1496.555,597.984,1457.734,597.984z"/>
	<g>
		<path d="M99.097,884.571l19.226-1.869c1.157,6.453,3.505,11.192,7.043,14.219s8.312,4.539,14.319,4.539
			c6.363,0,11.158-1.346,14.386-4.039c3.226-2.691,4.84-5.841,4.84-9.445c0-2.313-0.68-4.283-2.036-5.908
			c-1.358-1.624-3.729-3.037-7.109-4.239c-2.314-0.801-7.589-2.225-15.821-4.271c-10.592-2.626-18.024-5.852-22.296-9.68
			c-6.009-5.385-9.013-11.949-9.013-19.693c0-4.983,1.413-9.646,4.239-13.984c2.826-4.34,6.897-7.644,12.216-9.913
			c5.318-2.271,11.738-3.405,19.26-3.405c12.282,0,21.528,2.693,27.736,8.078s9.468,12.572,9.779,21.562l-19.759,0.868
			c-0.847-5.029-2.66-8.646-5.441-10.849c-2.781-2.202-6.953-3.304-12.517-3.304c-5.74,0-10.236,1.18-13.484,3.538
			c-2.092,1.514-3.138,3.538-3.138,6.074c0,2.314,0.979,4.296,2.938,5.941c2.492,2.093,8.545,4.272,18.157,6.542
			c9.613,2.27,16.723,4.617,21.329,7.043c4.605,2.426,8.21,5.741,10.813,9.946c2.604,4.206,3.905,9.402,3.905,15.587
			c0,5.607-1.558,10.859-4.673,15.755s-7.521,8.534-13.217,10.914c-5.697,2.381-12.796,3.571-21.295,3.571
			c-12.373,0-21.874-2.858-28.505-8.578C104.348,903.853,100.388,895.519,99.097,884.571z"/>
		<path d="M263.809,866.48l-18.491,3.338c-0.623-3.693-2.035-6.476-4.238-8.345s-5.063-2.804-8.578-2.804
			c-4.673,0-8.401,1.613-11.182,4.84c-2.782,3.227-4.172,8.623-4.172,16.188c0,8.412,1.412,14.353,4.238,17.824
			c2.826,3.471,6.619,5.207,11.382,5.207c3.561,0,6.476-1.012,8.745-3.038c2.27-2.024,3.872-5.507,4.807-10.446l18.424,3.137
			c-1.914,8.456-5.585,14.843-11.015,19.159c-5.43,4.317-12.706,6.476-21.828,6.476c-10.37,0-18.637-3.271-24.8-9.813
			c-6.165-6.542-9.246-15.598-9.246-27.169c0-11.704,3.093-20.816,9.279-27.337c6.186-6.519,14.553-9.779,25.1-9.779
			c8.634,0,15.498,1.858,20.595,5.574C257.923,853.207,261.583,858.87,263.809,866.48z"/>
		<path d="M303.556,818.55v35.981c6.052-7.076,13.284-10.614,21.695-10.614c4.315,0,8.211,0.801,11.682,2.403
			c3.472,1.602,6.085,3.649,7.844,6.142c1.758,2.492,2.959,5.252,3.604,8.277c0.646,3.027,0.969,7.722,0.969,14.085v41.589h-18.759
			v-37.449c0-7.433-0.356-12.149-1.067-14.152c-0.713-2.003-1.97-3.594-3.772-4.773c-1.802-1.179-4.062-1.769-6.775-1.769
			c-3.115,0-5.897,0.757-8.345,2.27c-2.447,1.514-4.238,3.795-5.373,6.843c-1.135,3.049-1.702,7.555-1.702,13.518v35.514h-18.759
			V818.55H303.556z"/>
		<path d="M370.87,879.965c0-6.23,1.536-12.26,4.606-18.091c3.07-5.829,7.42-10.28,13.051-13.351
			c5.629-3.071,11.916-4.606,18.858-4.606c10.725,0,19.514,3.482,26.368,10.447c6.853,6.966,10.28,15.766,10.28,26.401
			c0,10.726-3.461,19.616-10.381,26.669c-6.92,7.054-15.632,10.581-26.135,10.581c-6.498,0-12.694-1.469-18.591-4.406
			c-5.897-2.938-10.381-7.243-13.451-12.917C372.406,895.018,370.87,888.109,370.87,879.965z M390.096,880.966
			c0,7.032,1.669,12.417,5.007,16.155s7.454,5.607,12.35,5.607s9.001-1.869,12.316-5.607c3.314-3.738,4.974-9.168,4.974-16.288
			c0-6.943-1.659-12.283-4.974-16.021c-3.315-3.738-7.421-5.607-12.316-5.607s-9.012,1.869-12.35,5.607
			S390.096,873.935,390.096,880.966z"/>
		<path d="M461.217,879.965c0-6.23,1.536-12.26,4.606-18.091c3.07-5.829,7.42-10.28,13.051-13.351
			c5.629-3.071,11.916-4.606,18.858-4.606c10.725,0,19.514,3.482,26.368,10.447c6.853,6.966,10.28,15.766,10.28,26.401
			c0,10.726-3.461,19.616-10.381,26.669c-6.92,7.054-15.632,10.581-26.135,10.581c-6.498,0-12.694-1.469-18.591-4.406
			c-5.897-2.938-10.381-7.243-13.451-12.917C462.753,895.018,461.217,888.109,461.217,879.965z M480.442,880.966
			c0,7.032,1.669,12.417,5.007,16.155s7.454,5.607,12.35,5.607s9.001-1.869,12.316-5.607c3.314-3.738,4.974-9.168,4.974-16.288
			c0-6.943-1.659-12.283-4.974-16.021c-3.315-3.738-7.421-5.607-12.316-5.607s-9.012,1.869-12.35,5.607
			S480.442,873.935,480.442,880.966z"/>
		<path d="M555.903,916.413V818.55h18.758v97.863H555.903z"/>
		<path d="M641.202,879.965c0-6.23,1.536-12.26,4.606-18.091c3.07-5.829,7.42-10.28,13.051-13.351
			c5.629-3.071,11.916-4.606,18.858-4.606c10.725,0,19.514,3.482,26.368,10.447c6.853,6.966,10.28,15.766,10.28,26.401
			c0,10.726-3.461,19.616-10.381,26.669c-6.92,7.054-15.632,10.581-26.135,10.581c-6.498,0-12.694-1.469-18.591-4.406
			c-5.897-2.938-10.381-7.243-13.451-12.917C642.738,895.018,641.202,888.109,641.202,879.965z M660.428,880.966
			c0,7.032,1.669,12.417,5.007,16.155s7.454,5.607,12.35,5.607s9.001-1.869,12.316-5.607c3.314-3.738,4.974-9.168,4.974-16.288
			c0-6.943-1.659-12.283-4.974-16.021c-3.315-3.738-7.421-5.607-12.316-5.607s-9.012,1.869-12.35,5.607
			S660.428,873.935,660.428,880.966z"/>
		<path d="M727.678,845.52h10.413v-5.341c0-5.963,0.635-10.414,1.902-13.351c1.269-2.938,3.605-5.329,7.01-7.177
			c3.404-1.846,7.71-2.771,12.917-2.771c5.341,0,10.569,0.802,15.688,2.403l-2.536,13.084c-2.982-0.711-5.853-1.068-8.612-1.068
			c-2.715,0-4.662,0.635-5.841,1.903c-1.18,1.268-1.769,3.704-1.769,7.31v5.007h14.019v14.753H756.85v56.141h-18.759v-56.141
			h-10.413V845.52z"/>
		<path d="M868.517,818.55h19.693v61.949c0,8.101-0.713,14.33-2.137,18.691c-1.914,5.697-5.385,10.27-10.414,13.718
			c-5.029,3.449-11.66,5.174-19.893,5.174c-9.657,0-17.089-2.704-22.296-8.11c-5.207-5.407-7.834-13.34-7.877-23.799l18.624-2.136
			c0.223,5.607,1.045,9.568,2.47,11.882c2.137,3.517,5.385,5.274,9.747,5.274c4.405,0,7.52-1.258,9.346-3.772
			c1.824-2.514,2.736-7.731,2.736-15.653V818.55z"/>
		<path d="M911.601,879.965c0-6.23,1.536-12.26,4.606-18.091c3.07-5.829,7.42-10.28,13.051-13.351
			c5.629-3.071,11.916-4.606,18.858-4.606c10.725,0,19.514,3.482,26.368,10.447c6.853,6.966,10.28,15.766,10.28,26.401
			c0,10.726-3.461,19.616-10.381,26.669c-6.92,7.054-15.632,10.581-26.135,10.581c-6.498,0-12.694-1.469-18.591-4.406
			c-5.897-2.938-10.381-7.243-13.451-12.917C913.137,895.018,911.601,888.109,911.601,879.965z M930.826,880.966
			c0,7.032,1.669,12.417,5.007,16.155s7.454,5.607,12.35,5.607s9.001-1.869,12.316-5.607c3.314-3.738,4.974-9.168,4.974-16.288
			c0-6.943-1.659-12.283-4.974-16.021c-3.315-3.738-7.421-5.607-12.316-5.607s-9.012,1.869-12.35,5.607
			S930.826,873.935,930.826,880.966z"/>
		<path d="M1052.948,916.413v-10.614c-2.581,3.783-5.975,6.766-10.18,8.945c-4.206,2.18-8.645,3.271-13.317,3.271
			c-4.763,0-9.035-1.047-12.817-3.138c-3.783-2.092-6.521-5.028-8.211-8.812c-1.691-3.782-2.537-9.013-2.537-15.688V845.52h18.759
			v32.576c0,9.97,0.344,16.077,1.034,18.324c0.689,2.248,1.946,4.028,3.772,5.341c1.824,1.313,4.139,1.969,6.942,1.969
			c3.204,0,6.074-0.878,8.611-2.637c2.536-1.758,4.272-3.938,5.207-6.542s1.401-8.979,1.401-19.125V845.52h18.759v70.894H1052.948z"
			/>
		<path d="M1114.591,916.413h-18.759V845.52h17.423v10.08c2.981-4.762,5.663-7.899,8.045-9.413c2.38-1.513,5.083-2.27,8.11-2.27
			c4.272,0,8.388,1.18,12.35,3.538l-5.808,16.354c-3.16-2.046-6.098-3.07-8.812-3.07c-2.627,0-4.852,0.724-6.676,2.17
			c-1.825,1.446-3.261,4.062-4.306,7.844c-1.046,3.783-1.568,11.705-1.568,23.765V916.413z"/>
		<path d="M1221.158,916.413h-18.759v-36.182c0-7.653-0.4-12.604-1.201-14.853c-0.801-2.247-2.103-3.994-3.905-5.24
			c-1.803-1.245-3.972-1.869-6.509-1.869c-3.249,0-6.164,0.891-8.745,2.67c-2.581,1.78-4.351,4.139-5.307,7.076
			c-0.958,2.938-1.436,8.367-1.436,16.288v32.109h-18.758V845.52h17.423v10.413c6.186-8.011,13.974-12.016,23.364-12.016
			c4.139,0,7.921,0.746,11.349,2.236c3.427,1.491,6.019,3.394,7.776,5.707c1.758,2.315,2.981,4.94,3.672,7.878
			c0.689,2.937,1.035,7.143,1.035,12.616V916.413z"/>
		<path d="M1261.038,867.147l-17.023-3.07c1.913-6.853,5.207-11.927,9.88-15.221c4.673-3.293,11.615-4.939,20.828-4.939
			c8.366,0,14.597,0.991,18.691,2.971c4.094,1.98,6.976,4.495,8.645,7.543c1.669,3.049,2.504,8.646,2.504,16.789l-0.201,21.896
			c0,6.231,0.301,10.826,0.901,13.785c0.601,2.96,1.725,6.131,3.371,9.513h-18.558c-0.49-1.245-1.091-3.093-1.803-5.541
			c-0.312-1.111-0.534-1.846-0.667-2.202c-3.204,3.115-6.632,5.451-10.28,7.009c-3.649,1.558-7.544,2.337-11.683,2.337
			c-7.299,0-13.051-1.98-17.256-5.941c-4.206-3.961-6.309-8.968-6.309-15.021c0-4.005,0.957-7.576,2.87-10.714
			s4.595-5.541,8.044-7.21c3.449-1.668,8.422-3.126,14.92-4.372c8.768-1.646,14.842-3.182,18.225-4.606v-1.869
			c0-3.604-0.891-6.175-2.67-7.71c-1.781-1.535-5.141-2.303-10.08-2.303c-3.338,0-5.941,0.657-7.811,1.969
			C1263.708,861.552,1262.194,863.854,1261.038,867.147z M1286.138,882.368c-2.403,0.801-6.208,1.759-11.415,2.87
			c-5.207,1.113-8.611,2.203-10.214,3.271c-2.448,1.735-3.672,3.938-3.672,6.608c0,2.626,0.979,4.896,2.938,6.809
			c1.958,1.914,4.45,2.871,7.477,2.871c3.382,0,6.609-1.112,9.68-3.338c2.27-1.69,3.76-3.76,4.473-6.208
			c0.489-1.603,0.734-4.65,0.734-9.146V882.368z"/>
		<path d="M1329.89,916.413V818.55h18.758v97.863H1329.89z"/>
		<path d="M1374.709,835.906V818.55h18.758v17.356H1374.709z M1374.709,916.413V845.52h18.758v70.894H1374.709z"/>
		<path d="M1412.919,896.187l18.825-2.871c0.801,3.65,2.425,6.42,4.873,8.312c2.447,1.892,5.874,2.837,10.28,2.837
			c4.851,0,8.5-0.89,10.948-2.67c1.646-1.246,2.47-2.914,2.47-5.007c0-1.424-0.445-2.604-1.335-3.538
			c-0.935-0.89-3.027-1.713-6.275-2.47c-15.132-3.338-24.723-6.386-28.771-9.146c-5.607-3.827-8.411-9.146-8.411-15.955
			c0-6.141,2.425-11.303,7.276-15.486c4.851-4.183,12.372-6.275,22.563-6.275c9.701,0,16.911,1.58,21.629,4.739
			c4.716,3.161,7.966,7.834,9.746,14.019l-17.69,3.271c-0.757-2.759-2.192-4.873-4.306-6.342c-2.114-1.469-5.13-2.203-9.045-2.203
			c-4.94,0-8.479,0.69-10.614,2.069c-1.425,0.979-2.137,2.248-2.137,3.806c0,1.335,0.623,2.47,1.869,3.404
			c1.691,1.246,7.532,3.004,17.523,5.273c9.99,2.27,16.967,5.052,20.928,8.345c3.916,3.338,5.875,7.988,5.875,13.951
			c0,6.499-2.716,12.083-8.145,16.756c-5.43,4.673-13.463,7.01-24.099,7.01c-9.657,0-17.301-1.958-22.931-5.875
			C1418.337,908.226,1414.654,902.906,1412.919,896.187z"/>
		<path d="M1500.996,845.52h17.29v9.679c6.185-7.521,13.551-11.281,22.096-11.281c4.539,0,8.478,0.935,11.815,2.804
			s6.075,4.695,8.211,8.478c3.114-3.782,6.476-6.608,10.08-8.478s7.453-2.804,11.549-2.804c5.207,0,9.612,1.058,13.218,3.171
			c3.604,2.114,6.297,5.219,8.077,9.313c1.29,3.026,1.936,7.922,1.936,14.686v45.327h-18.758v-40.521
			c0-7.031-0.646-11.57-1.937-13.618c-1.735-2.67-4.405-4.005-8.011-4.005c-2.626,0-5.096,0.801-7.409,2.403
			c-2.314,1.602-3.983,3.949-5.007,7.042c-1.024,3.094-1.535,7.978-1.535,14.653v34.045h-18.759v-38.852
			c0-6.897-0.333-11.349-1.001-13.351c-0.668-2.003-1.702-3.493-3.104-4.473c-1.401-0.979-3.304-1.469-5.707-1.469
			c-2.894,0-5.497,0.779-7.811,2.336c-2.314,1.559-3.972,3.806-4.974,6.742c-1.001,2.938-1.502,7.811-1.502,14.62v34.445h-18.758
			V845.52z"/>
		<path d="M1689.633,867.147l-17.023-3.07c1.913-6.853,5.207-11.927,9.88-15.221c4.673-3.293,11.615-4.939,20.828-4.939
			c8.366,0,14.597,0.991,18.691,2.971c4.094,1.98,6.976,4.495,8.645,7.543c1.669,3.049,2.504,8.646,2.504,16.789l-0.201,21.896
			c0,6.231,0.301,10.826,0.901,13.785c0.601,2.96,1.725,6.131,3.371,9.513h-18.558c-0.49-1.245-1.091-3.093-1.803-5.541
			c-0.312-1.111-0.534-1.846-0.667-2.202c-3.204,3.115-6.632,5.451-10.28,7.009c-3.649,1.558-7.544,2.337-11.683,2.337
			c-7.299,0-13.051-1.98-17.256-5.941c-4.206-3.961-6.309-8.968-6.309-15.021c0-4.005,0.957-7.576,2.87-10.714
			s4.595-5.541,8.044-7.21c3.449-1.668,8.422-3.126,14.92-4.372c8.768-1.646,14.842-3.182,18.225-4.606v-1.869
			c0-3.604-0.891-6.175-2.67-7.71c-1.781-1.535-5.141-2.303-10.08-2.303c-3.338,0-5.941,0.657-7.811,1.969
			C1692.303,861.552,1690.789,863.854,1689.633,867.147z M1714.732,882.368c-2.403,0.801-6.208,1.759-11.415,2.87
			c-5.207,1.113-8.611,2.203-10.214,3.271c-2.448,1.735-3.672,3.938-3.672,6.608c0,2.626,0.979,4.896,2.938,6.809
			c1.958,1.914,4.45,2.871,7.477,2.871c3.382,0,6.609-1.112,9.68-3.338c2.27-1.69,3.76-3.76,4.473-6.208
			c0.489-1.603,0.734-4.65,0.734-9.146V882.368z"/>
		<path d="M1822.97,916.413h-18.759v-36.182c0-7.653-0.4-12.604-1.201-14.853c-0.801-2.247-2.103-3.994-3.905-5.24
			c-1.803-1.245-3.972-1.869-6.509-1.869c-3.249,0-6.164,0.891-8.745,2.67c-2.581,1.78-4.351,4.139-5.307,7.076
			c-0.958,2.938-1.436,8.367-1.436,16.288v32.109h-18.758V845.52h17.423v10.413c6.186-8.011,13.974-12.016,23.364-12.016
			c4.139,0,7.921,0.746,11.349,2.236c3.427,1.491,6.019,3.394,7.776,5.707c1.758,2.315,2.981,4.94,3.672,7.878
			c0.689,2.937,1.035,7.143,1.035,12.616V916.413z"/>
		<path d="M1913.851,916.413h-17.424v-10.414c-2.894,4.051-6.308,7.065-10.247,9.046c-3.938,1.979-7.91,2.971-11.915,2.971
			c-8.145,0-15.12-3.282-20.928-9.847s-8.712-15.721-8.712-27.47c0-12.016,2.825-21.15,8.478-27.403
			c5.651-6.252,12.794-9.379,21.429-9.379c7.921,0,14.774,3.294,20.561,9.88V818.55h18.759V916.413z M1863.784,879.431
			c0,7.566,1.045,13.04,3.137,16.422c3.026,4.896,7.254,7.343,12.684,7.343c4.316,0,7.988-1.836,11.015-5.507
			c3.026-3.672,4.539-9.156,4.539-16.455c0-8.145-1.468-14.008-4.405-17.59s-6.698-5.374-11.281-5.374
			c-4.451,0-8.178,1.769-11.182,5.307S1863.784,872.399,1863.784,879.431z"/>
		<path d="M1984.196,818.55h39.118c7.743,0,13.518,0.323,17.323,0.968c3.805,0.646,7.209,1.992,10.213,4.039
			c3.004,2.048,5.508,4.773,7.511,8.178c2.002,3.404,3.004,7.221,3.004,11.448c0,4.584-1.235,8.79-3.705,12.617
			s-5.819,6.698-10.047,8.611c5.963,1.735,10.547,4.695,13.752,8.878c3.204,4.184,4.806,9.102,4.806,14.753
			c0,4.451-1.034,8.778-3.104,12.984c-2.069,4.205-4.896,7.566-8.479,10.08c-3.583,2.515-8,4.062-13.251,4.639
			c-3.294,0.357-11.237,0.579-23.831,0.668h-33.311V818.55z M2003.955,834.838v22.631h12.951c7.698,0,12.482-0.111,14.352-0.334
			c3.382-0.4,6.042-1.569,7.978-3.505c1.937-1.936,2.904-4.483,2.904-7.644c0-3.025-0.835-5.484-2.504-7.376
			s-4.15-3.038-7.443-3.438c-1.958-0.222-7.588-0.334-16.889-0.334H2003.955z M2003.955,873.757v26.168h18.291
			c7.12,0,11.638-0.2,13.552-0.601c2.938-0.534,5.329-1.836,7.176-3.905s2.771-4.84,2.771-8.312c0-2.938-0.712-5.429-2.136-7.477
			c-1.425-2.046-3.483-3.538-6.175-4.473c-2.693-0.935-8.535-1.401-17.523-1.401H2003.955z"/>
		<path d="M2107.521,916.413h-18.759V845.52h17.423v10.08c2.981-4.762,5.663-7.899,8.045-9.413c2.38-1.513,5.083-2.27,8.11-2.27
			c4.272,0,8.388,1.18,12.35,3.538l-5.808,16.354c-3.16-2.046-6.098-3.07-8.812-3.07c-2.627,0-4.852,0.724-6.676,2.17
			c-1.825,1.446-3.261,4.062-4.306,7.844c-1.046,3.783-1.568,11.705-1.568,23.765V916.413z"/>
		<path d="M2145.263,879.965c0-6.23,1.536-12.26,4.606-18.091c3.07-5.829,7.42-10.28,13.051-13.351
			c5.629-3.071,11.916-4.606,18.858-4.606c10.725,0,19.514,3.482,26.368,10.447c6.853,6.966,10.28,15.766,10.28,26.401
			c0,10.726-3.461,19.616-10.381,26.669c-6.92,7.054-15.632,10.581-26.135,10.581c-6.498,0-12.694-1.469-18.591-4.406
			c-5.897-2.938-10.381-7.243-13.451-12.917C2146.799,895.018,2145.263,888.109,2145.263,879.965z M2164.488,880.966
			c0,7.032,1.669,12.417,5.007,16.155s7.454,5.607,12.35,5.607s9.001-1.869,12.316-5.607c3.314-3.738,4.974-9.168,4.974-16.288
			c0-6.943-1.659-12.283-4.974-16.021c-3.315-3.738-7.421-5.607-12.316-5.607s-9.012,1.869-12.35,5.607
			S2164.488,873.935,2164.488,880.966z"/>
		<path d="M2304.969,916.413h-17.424v-10.414c-2.894,4.051-6.308,7.065-10.247,9.046c-3.938,1.979-7.91,2.971-11.915,2.971
			c-8.145,0-15.12-3.282-20.928-9.847s-8.712-15.721-8.712-27.47c0-12.016,2.825-21.15,8.478-27.403
			c5.651-6.252,12.794-9.379,21.429-9.379c7.921,0,14.774,3.294,20.561,9.88V818.55h18.759V916.413z M2254.902,879.431
			c0,7.566,1.045,13.04,3.137,16.422c3.026,4.896,7.254,7.343,12.684,7.343c4.316,0,7.988-1.836,11.015-5.507
			c3.026-3.672,4.539-9.156,4.539-16.455c0-8.145-1.468-14.008-4.405-17.59s-6.698-5.374-11.281-5.374
			c-4.451,0-8.178,1.769-11.182,5.307S2254.902,872.399,2254.902,879.431z"/>
		<path d="M2392.11,866.48l-18.491,3.338c-0.623-3.693-2.035-6.476-4.238-8.345s-5.063-2.804-8.578-2.804
			c-4.673,0-8.401,1.613-11.182,4.84c-2.782,3.227-4.172,8.623-4.172,16.188c0,8.412,1.412,14.353,4.238,17.824
			c2.826,3.471,6.619,5.207,11.382,5.207c3.561,0,6.476-1.012,8.745-3.038c2.27-2.024,3.872-5.507,4.807-10.446l18.424,3.137
			c-1.914,8.456-5.585,14.843-11.015,19.159c-5.43,4.317-12.706,6.476-21.828,6.476c-10.37,0-18.637-3.271-24.8-9.813
			c-6.165-6.542-9.246-15.598-9.246-27.169c0-11.704,3.093-20.816,9.279-27.337c6.186-6.519,14.553-9.779,25.1-9.779
			c8.634,0,15.498,1.858,20.595,5.574C2386.225,853.207,2389.885,858.87,2392.11,866.48z"/>
		<path d="M2427.184,867.147l-17.023-3.07c1.913-6.853,5.207-11.927,9.88-15.221c4.673-3.293,11.615-4.939,20.828-4.939
			c8.366,0,14.597,0.991,18.691,2.971c4.094,1.98,6.976,4.495,8.645,7.543c1.669,3.049,2.504,8.646,2.504,16.789l-0.201,21.896
			c0,6.231,0.301,10.826,0.901,13.785c0.601,2.96,1.725,6.131,3.371,9.513h-18.558c-0.49-1.245-1.091-3.093-1.803-5.541
			c-0.312-1.111-0.534-1.846-0.667-2.202c-3.204,3.115-6.632,5.451-10.28,7.009c-3.649,1.558-7.544,2.337-11.683,2.337
			c-7.299,0-13.051-1.98-17.256-5.941c-4.206-3.961-6.309-8.968-6.309-15.021c0-4.005,0.957-7.576,2.87-10.714
			s4.595-5.541,8.044-7.21c3.449-1.668,8.422-3.126,14.92-4.372c8.768-1.646,14.842-3.182,18.225-4.606v-1.869
			c0-3.604-0.891-6.175-2.67-7.71c-1.781-1.535-5.141-2.303-10.08-2.303c-3.338,0-5.941,0.657-7.811,1.969
			C2429.854,861.552,2428.34,863.854,2427.184,867.147z M2452.283,882.368c-2.403,0.801-6.208,1.759-11.415,2.87
			c-5.207,1.113-8.611,2.203-10.214,3.271c-2.448,1.735-3.672,3.938-3.672,6.608c0,2.626,0.979,4.896,2.938,6.809
			c1.958,1.914,4.45,2.871,7.477,2.871c3.382,0,6.609-1.112,9.68-3.338c2.27-1.69,3.76-3.76,4.473-6.208
			c0.489-1.603,0.734-4.65,0.734-9.146V882.368z"/>
		<path d="M2489.426,896.187l18.825-2.871c0.801,3.65,2.425,6.42,4.873,8.312c2.447,1.892,5.874,2.837,10.28,2.837
			c4.851,0,8.5-0.89,10.948-2.67c1.646-1.246,2.47-2.914,2.47-5.007c0-1.424-0.445-2.604-1.335-3.538
			c-0.935-0.89-3.027-1.713-6.275-2.47c-15.132-3.338-24.723-6.386-28.771-9.146c-5.607-3.827-8.411-9.146-8.411-15.955
			c0-6.141,2.425-11.303,7.276-15.486c4.851-4.183,12.372-6.275,22.563-6.275c9.701,0,16.911,1.58,21.629,4.739
			c4.716,3.161,7.966,7.834,9.746,14.019l-17.69,3.271c-0.757-2.759-2.192-4.873-4.306-6.342c-2.114-1.469-5.13-2.203-9.045-2.203
			c-4.94,0-8.479,0.69-10.614,2.069c-1.425,0.979-2.137,2.248-2.137,3.806c0,1.335,0.623,2.47,1.869,3.404
			c1.691,1.246,7.532,3.004,17.523,5.273c9.99,2.27,16.967,5.052,20.928,8.345c3.916,3.338,5.875,7.988,5.875,13.951
			c0,6.499-2.716,12.083-8.145,16.756c-5.43,4.673-13.463,7.01-24.099,7.01c-9.657,0-17.301-1.958-22.931-5.875
			C2494.844,908.226,2491.161,902.906,2489.426,896.187z"/>
		<path d="M2611.415,845.52v14.953h-12.817v28.571c0,5.785,0.122,9.156,0.367,10.113c0.244,0.957,0.801,1.747,1.669,2.369
			c0.867,0.624,1.924,0.935,3.171,0.935c1.735,0,4.249-0.601,7.543-1.802l1.603,14.553c-4.362,1.869-9.302,2.804-14.82,2.804
			c-3.382,0-6.431-0.567-9.146-1.703c-2.715-1.135-4.706-2.603-5.975-4.405c-1.268-1.803-2.147-4.239-2.637-7.31
			c-0.4-2.181-0.601-6.586-0.601-13.218v-30.907h-8.611V845.52h8.611v-14.086l18.825-10.947v25.033H2611.415z"/>
		<path d="M2631.269,835.906V818.55h18.758v17.356H2631.269z M2631.269,916.413V845.52h18.758v70.894H2631.269z"/>
		<path d="M2740.573,916.413h-18.759v-36.182c0-7.653-0.4-12.604-1.201-14.853c-0.801-2.247-2.103-3.994-3.905-5.24
			c-1.803-1.245-3.972-1.869-6.509-1.869c-3.249,0-6.164,0.891-8.745,2.67c-2.581,1.78-4.351,4.139-5.307,7.076
			c-0.958,2.938-1.436,8.367-1.436,16.288v32.109h-18.758V845.52h17.423v10.413c6.186-8.011,13.974-12.016,23.364-12.016
			c4.139,0,7.921,0.746,11.349,2.236c3.427,1.491,6.019,3.394,7.776,5.707c1.758,2.315,2.981,4.94,3.672,7.878
			c0.689,2.937,1.035,7.143,1.035,12.616V916.413z"/>
		<path d="M2764.698,921.086l21.429,2.604c0.355,2.492,1.179,4.205,2.47,5.14c1.779,1.336,4.583,2.003,8.411,2.003
			c4.896,0,8.566-0.734,11.015-2.203c1.646-0.979,2.893-2.56,3.738-4.739c0.578-1.559,0.868-4.429,0.868-8.611v-10.347
			c-5.607,7.654-12.684,11.481-21.229,11.481c-9.524,0-17.067-4.027-22.63-12.083c-4.362-6.363-6.542-14.285-6.542-23.765
			c0-11.882,2.859-20.961,8.578-27.236c5.718-6.274,12.827-9.412,21.328-9.412c8.767,0,15.998,3.85,21.695,11.549v-9.946h17.557
			v63.617c0,8.366-0.69,14.619-2.069,18.758c-1.38,4.14-3.315,7.388-5.808,9.747c-2.493,2.358-5.819,4.205-9.979,5.54
			c-4.162,1.335-9.425,2.003-15.788,2.003c-12.016,0-20.539-2.059-25.567-6.175c-5.029-4.117-7.543-9.335-7.543-15.654
			C2764.632,922.731,2764.653,921.976,2764.698,921.086z M2781.454,879.497c0,7.521,1.457,13.029,4.372,16.522
			c2.915,3.494,6.509,5.24,10.781,5.24c4.583,0,8.455-1.791,11.615-5.374c3.159-3.582,4.74-8.889,4.74-15.921
			c0-7.343-1.514-12.794-4.54-16.355c-3.026-3.56-6.854-5.34-11.481-5.34c-4.496,0-8.2,1.747-11.115,5.24
			C2782.911,867.004,2781.454,872.333,2781.454,879.497z"/>
	</g>
</g>
</svg>
