<?xml version="1.0" encoding="utf-8"?>
<!-- Generator: Adobe Illustrator 16.0.0, SVG Export Plug-In . SVG Version: 6.00 Build 0)  -->
<!DOCTYPE svg PUBLIC "-//W3C//DTD SVG 1.1//EN" "http://www.w3.org/Graphics/SVG/1.1/DTD/svg11.dtd">
<svg version="1.1" id="Layer_1" xmlns="http://www.w3.org/2000/svg" xmlns:xlink="http://www.w3.org/1999/xlink" x="0px" y="0px"
	 width="2968px" height="1024px" viewBox="0 0 2968 1024" enable-background="new 0 0 2968 1024" xml:space="preserve">
<g>
	<path fill="#0075B2" d="M239.992,704.302c-9.676,11.44-18.472,23.708-26.276,36.604c51.78,43.446,118.538,69.625,191.421,69.625
		h298.021v-114.2H405.137c-42.612,0-81.836-14.508-113.012-38.848C272.949,670.6,255.582,685.871,239.992,704.302z"/>
	<path fill="#0075B2" d="M405.137,328.7h298.021V214.5H405.137c-164.59,0-298.01,133.43-298.01,298.01
		c0,61.08,18.387,117.858,49.91,165.129c7.676-20.889,17.509-40.979,29.351-59.734c12.796-20.264,26.792-39.605,41.321-57.262
		c-4.152-15.343-6.381-31.477-6.381-48.133C221.328,411,303.627,328.7,405.137,328.7z"/>
	<path fill="none" d="M157.037,677.639c15.807,23.703,34.919,45.008,56.679,63.267c7.805-12.896,16.601-25.163,26.276-36.604
		c15.59-18.431,32.957-33.702,52.133-46.819c-30.903-24.129-53.885-57.924-64.416-96.84c-14.529,17.656-28.525,36.998-41.321,57.262
		C174.546,636.66,164.713,656.75,157.037,677.639z"/>
	<g>
		<path opacity="0.4" fill="#EA9423" d="M649.586,557.931c0.092-0.45,0.186-0.902,0.266-1.351c-0.033,0.223-0.08,0.448-0.127,0.676
			C649.686,557.486,649.639,557.709,649.586,557.931z"/>
		<path opacity="0.4" fill="#EA9423" d="M669.981,589.181c-0.847,1.298-1.88,2.417-3.041,3.337c1.208-0.23,2.411-0.473,3.616-0.742
			C670.381,590.912,670.189,590.054,669.981,589.181z"/>
		<path opacity="0.4" fill="#EA9423" d="M649.586,557.931c0.092-0.45,0.186-0.902,0.266-1.351c-0.033,0.223-0.08,0.448-0.127,0.676
			C649.686,557.486,649.639,557.709,649.586,557.931z"/>
		<path fill="#EA9423" d="M671.297,586.68c4.475-11.135-8.679-22.064-16.389-28.372c-6.115-5.002-3.921-6.618-4.693-13.726
			c-1.082-10.328-6.691-17.742-12.912-25.955c-37.486-49.519-92.252-70.103-152.318-70.604
			c-72.816-0.966-145.203,25.985-200.083,74.338c-32.55,28.678-62.69,66.906-85.83,103.551
			c-24.001,38.017-39.243,81.121-44.499,125.713c-33.863-11.433-63.414,10.199-72.655,43.697
			c28.812-23.156,41.415,24.648,65.782,15.955c-3.144,23.77,44.026,28.32,43.449,54.602c15.039-24.055,14.537-55.493-1.66-78.986
			c-3.592-5.217-11.299-8.229-8.537-14.723c3.457-8.225,7.304-16.291,11.486-24.172c10.09-19.01,22.205-36.951,36.103-53.383
			c49.43-58.439,116.383-86.358,187.165-109.01c36.066-12.841,75.823-16.668,113.727-14.195c12.844,0.865,25.708,2.607,38.287,5.294
			c17.994,3.714,36.273,6.171,54.086,10.749C633.482,590.456,664.311,603.635,671.297,586.68
			C672.293,584.203,671.072,587.229,671.297,586.68z M649.852,556.58c-0.082,0.453-0.17,0.903-0.266,1.351
			C649.678,557.48,649.771,557.028,649.852,556.58C649.818,556.803,649.771,557.028,649.852,556.58z"/>
		<path fill="#EA9423" d="M431.592,443.675c-28.006,5.333-39.16,11.854-60.969,24.554c-2.012,0.879-9.557,5.166-11.539,6.095
			c2.641-2.681,5.838-9.372,6.737-13.21c5.103-21.742-0.968-31.98-11.892-46.464c-0.226-0.296-3.064-3.282-3.37-3.488
			c0,0,0,0-0.008-0.005c-3.503-2.741-4.163-6.173-4.655-10.54c8.693-4.585,16.992-3.287,26.468-2.183
			c8.975,1.049,17.804,4.02,26.187,8.694C413.987,415.733,425.909,428.246,431.592,443.675z"/>
		<path fill="#EA9423" d="M558.393,581.418c-14.111,17.221-28.092,31.063-53.955,37.619c-5.941,1.506-12.448,2.05-18.518,2.877
			c-3.037,0.415-3.535,0.541-6.596,0.703c-1.162,0.063-2.59-0.051-3.753-0.074c-1.278-0.023-3.555-1.164-3.866-2.174
			c-0.213-0.692,0.423-1.461,1.008-1.756c0.688-0.352,0.4-0.207,1.084-0.57c1.449-0.775,2.883-1.58,4.299-2.418
			c2.684-1.584,5.299-3.281,7.842-5.082c5.131-3.637,9.963-7.702,14.424-12.139c4.269-4.244,8.197-8.831,11.736-13.701
			c1.832-2.525,2.674-3.655,4.287-6.328c0.213-0.354,1.022-1.391,1.508-1.512c0.826-0.207,1.674,0.264,2.346,0.545
			c2.035,0.85,6.123,0.91,7.585,0.99c19.546,1.043,19.962,1.116,31.61,0.502C559.107,579.748,558.765,580.588,558.393,581.418
			C542.652,600.627,558.766,580.586,558.393,581.418C544.813,597.992,558.766,580.586,558.393,581.418z"/>
	</g>
</g>
<polygon fill="#0075B2" points="2113.557,214.785 2113.557,214.774 2113.547,214.755 1999.236,214.755 1999.236,214.785 
	1957.457,350.314 1915.537,214.265 1915.527,214.244 1801.217,214.244 1801.217,214.265 1617.527,810.284 1731.848,810.284 
	1858.377,399.734 1900.297,535.784 1900.316,535.836 2014.607,535.836 2014.617,535.784 2056.396,400.255 2182.918,810.795 
	2297.236,810.795 "/>
<polygon fill="#0075B2" points="1027.168,214.51 1027.157,214.49 912.848,214.49 912.848,214.51 729.157,810.53 843.478,810.53 
	970.008,399.98 1096.527,810.53 1210.848,810.53 "/>
<polygon fill="#0075B2" points="2720.816,214.76 2720.816,328.96 2537.066,328.96 2537.066,810.79 2422.867,810.79 2422.867,328.96 
	2239.117,328.96 2239.117,214.76 "/>
<rect x="2746.507" y="213.98" fill="#0075B2" width="114.204" height="596.553"/>
<path fill="#0075B2" d="M1609.35,512.05c-4.58-5.819-9.5-11.36-14.739-16.59c25.399-29.851,40.729-68.54,40.729-110.81
	c0-92.601-73.59-168.021-165.471-170.98c-0.719-0.029-1.449-0.05-2.17-0.061c-1.14-0.029-2.289-0.039-3.439-0.039
	c-1.149,0-2.3,0.01-3.439,0.039c-4.891,0.091-9.721,0.391-14.5,0.891H1235.85v595.52h114.21v0.511h114.2
	c101.891,0,184.5-82.61,184.5-184.5C1648.76,583.01,1634.04,543.43,1609.35,512.05z M1350.06,328.7h100.171c0,0,11.35,0,14.029,0
	c31.391,0,56.851,25.45,56.851,56.85c0,28.421-20.87,51.979-48.12,56.19c0.79,0.029,1.569,0.07,2.35,0.119
	c-3.17,0.311-6.371,0.49-9.609,0.521c-0.49,0.011-0.98,0.021-1.471,0.021s-0.979-0.01-1.47-0.021c-3.241-0.03-6.44-0.21-9.61-0.521
	h-0.01c-1.01-0.09-2.02-0.199-3.03-0.33h-100.08V328.7z M1464.26,696.33h-113.7V555.74h113.7c19.19,0,36.58,7.689,49.26,20.16
	c12.98,12.75,21.029,30.5,21.029,50.13C1534.549,664.85,1503.08,696.33,1464.26,696.33z"/>
</svg>
